<svg width="29" height="29" viewBox="0 0 29 29" fill="none" xmlns="http://www.w3.org/2000/svg">
<path d="M15.7029 26.9521C16.7482 27.6251 17.9922 27.9201 19.2284 27.7881C20.4645 27.656 21.6182 27.1049 22.4976 26.2262L23.2638 25.4601C23.6036 25.1166 23.7943 24.6529 23.7943 24.1697C23.7943 23.6865 23.6036 23.2228 23.2638 22.8793L20.0378 19.6735C19.6978 19.3349 19.2374 19.1448 18.7575 19.1448C18.2776 19.1448 17.8173 19.3349 17.4772 19.6735V19.6735C17.1337 20.0133 16.67 20.2039 16.1868 20.2039C15.7036 20.2039 15.24 20.0133 14.8964 19.6735L9.75505 14.5321C9.41522 14.1886 9.22461 13.7249 9.22461 13.2417C9.22461 12.7585 9.41522 12.2948 9.75505 11.9513V11.9513C10.0936 11.6112 10.2837 11.1509 10.2837 10.671C10.2837 10.1911 10.0936 9.73077 9.75505 9.39069L6.65005 6.16472C6.30655 5.82489 5.84286 5.63428 5.35966 5.63428C4.87646 5.63428 4.41277 5.82489 4.06927 6.16472L3.3031 6.93089C2.40871 7.79794 1.83874 8.9455 1.68829 10.1821C1.53785 11.4186 1.81604 12.6694 2.47645 13.7256C5.99221 18.9452 10.4834 23.4363 15.7029 26.9521V26.9521Z" stroke="#193641" stroke-width="2" stroke-linecap="round" stroke-linejoin="round"/>
<path d="M14.7148 1.6084C16.4359 1.6084 18.1401 1.94738 19.7301 2.606C21.3201 3.26461 22.7649 4.22996 23.9818 5.44692C25.1988 6.66388 26.1642 8.10862 26.8228 9.69865C27.4814 11.2887 27.8204 12.9929 27.8204 14.7139" stroke="#193641" stroke-width="2" stroke-linecap="round" stroke-linejoin="round"/>
<path d="M14.7148 6.64893C16.8538 6.64893 18.9051 7.49862 20.4176 9.01109C21.9301 10.5236 22.7798 12.5749 22.7798 14.7139" stroke="#193641" stroke-width="2" stroke-linecap="round" stroke-linejoin="round"/>
</svg>
